<svg width="192" height="393" viewBox="0 0 192 393" fill="none" xmlns="http://www.w3.org/2000/svg">
<path d="M4.18471 151.851C5.31906 151.081 6.60839 150.57 7.96187 150.352C9.31535 150.135 10.7001 150.217 12.0185 150.592C13.3369 150.968 14.5569 151.628 15.5927 152.526C16.6284 153.424 17.4547 154.538 18.0132 155.79L39.4337 155.224L42.9523 168.158L12.6912 168.532C10.5259 169.33 8.14276 169.307 5.99336 168.467C3.84396 167.626 2.07759 166.026 1.02907 163.97C-0.0194623 161.914 -0.277336 159.544 0.304273 157.311C0.885883 155.077 2.2666 153.135 4.18477 151.851L4.18471 151.851Z" fill="#FFB8B8"/>
<path d="M28.2098 172.525C26.8742 171.281 26.0628 169.575 25.9405 167.754L25.084 154.897C25.0043 153.72 25.2169 152.542 25.7027 151.468C26.1885 150.393 26.9325 149.455 27.8685 148.737L62.4031 122.205L82.478 97.8368C84.5126 95.3741 87.4085 93.7786 90.5773 93.3745C93.7461 92.9703 96.9499 93.788 99.5375 95.6612L99.5376 95.6613C100.884 96.6389 102.022 97.8744 102.887 99.2959C103.751 100.717 104.324 102.297 104.573 103.942C104.822 105.587 104.74 107.265 104.335 108.878C103.929 110.492 103.206 112.009 102.208 113.34L78.8252 144.557L62.1783 162.187C56.8861 167.765 49.9555 171.513 42.3906 172.889L34.3588 174.331C33.3664 174.509 32.3477 174.476 31.369 174.234C30.3903 173.991 29.4738 173.545 28.6791 172.925C28.5162 172.798 28.3597 172.664 28.2098 172.525Z" fill="#2447F9"/>
<path d="M186.452 373.794L175.361 376.564L159.398 335.101L175.768 331.013L186.452 373.794Z" fill="#FFB8B8"/>
<path d="M166.647 375.373L188.038 370.031L191.401 383.5L156.542 392.205C156.1 390.436 156.011 388.598 156.28 386.795C156.549 384.992 157.17 383.259 158.108 381.697C159.047 380.134 160.284 378.771 161.749 377.686C163.214 376.601 164.878 375.815 166.647 375.373V375.373Z" fill="#2F2E41"/>
<path d="M86.3474 381.59L74.9153 381.589L69.4794 337.493L86.3513 337.494L86.3474 381.59Z" fill="#FFB8B8"/>
<path d="M66.7495 378.322H88.7972V392.204H52.8675C52.8675 390.381 53.2266 388.576 53.9242 386.891C54.6218 385.207 55.6444 383.677 56.9334 382.388C58.2225 381.099 59.7528 380.076 61.4371 379.378C63.1213 378.681 64.9264 378.322 66.7495 378.322V378.322Z" fill="#2F2E41"/>
<path d="M81.3909 63.3101C94.9556 63.3101 105.952 52.3137 105.952 38.749C105.952 25.1843 94.9556 14.188 81.3909 14.188C67.8262 14.188 56.83 25.1843 56.83 38.749C56.83 52.3137 67.8262 63.3101 81.3909 63.3101Z" fill="#FFB8B8"/>
<path d="M81.3441 39.6199C81.3895 36.3348 87.0434 35.9231 88.8044 38.7231C90.5654 41.523 89.4355 45.176 87.8838 48.0915C86.2685 51.1266 84.1734 54.1918 84.4965 57.639C84.6074 58.5091 84.9368 59.337 85.4538 60.0456C85.9709 60.7542 86.6588 61.3204 87.4536 61.6916C88.2484 62.0627 89.1242 62.2267 89.9994 62.1683C90.8747 62.1099 91.7209 61.8309 92.4593 61.3574C100.482 56.4177 107.254 49.2273 110.251 40.4643C113.402 31.2478 111.828 20.2611 105.012 13.18C98.1952 6.09895 85.9757 4.09602 77.8852 9.75684L64.0759 0.35135C63.7507 0.122386 63.3626 -0.00033861 62.9649 7.01708e-07C62.5672 0.000340013 62.1794 0.123723 61.8546 0.353242C61.5299 0.58276 61.284 0.907156 61.1509 1.28192C61.0178 1.65669 61.0039 2.06348 61.1112 2.44644L63.1304 9.0091L56.1557 7.25436C55.8583 7.17187 55.543 7.18105 55.2509 7.2807C54.9588 7.38035 54.7036 7.56584 54.5186 7.8129C54.3337 8.05996 54.2276 8.3571 54.2143 8.66544C54.2009 8.97377 54.281 9.27894 54.4439 9.54105L56.8386 13.2613C53.6452 10.634 48.1284 13.6281 47.6707 17.6801C47.213 21.7321 50.5062 25.4674 54.3789 26.9938C58.2515 28.5202 62.5765 28.3465 66.7481 28.149C66.2982 30.167 66.4965 32.2756 67.3148 34.1743C68.1331 36.0731 69.5297 37.6652 71.3057 38.724C74.9135 40.8148 79.895 40.322 81.3441 39.6199Z" fill="#2F2E41"/>
<path d="M86.6649 362.968C86.6176 362.968 86.5702 362.968 86.5223 362.966L68.8641 362.416C68.2647 362.397 67.675 362.258 67.1298 362.008C66.5846 361.758 66.0948 361.402 65.6893 360.96C65.2837 360.518 64.9706 360 64.7683 359.435C64.566 358.871 64.4786 358.271 64.5112 357.672L73.3431 195.506L141.203 214.75L185.702 353.533C185.915 354.198 185.97 354.904 185.864 355.594C185.757 356.285 185.491 356.941 185.087 357.511C184.683 358.08 184.151 358.548 183.535 358.877C182.919 359.206 182.234 359.387 181.536 359.406L161.198 359.946C160.279 359.964 159.377 359.704 158.61 359.199C157.842 358.694 157.246 357.968 156.9 357.118L111.129 242.624C111.006 242.318 110.786 242.06 110.503 241.892C110.22 241.723 109.889 241.653 109.561 241.691C109.234 241.729 108.928 241.875 108.691 242.104C108.455 242.334 108.3 242.635 108.252 242.961L91.1146 359.125C90.9571 360.193 90.4211 361.168 89.6043 361.874C88.7874 362.579 87.7443 362.968 86.6649 362.968V362.968Z" fill="#2F2E41"/>
<path d="M137.91 236.191C133.089 236.187 128.393 234.661 124.491 231.831L102.655 216.068C97.8642 212.617 92.3137 210.368 86.4716 209.51L75.965 207.977C74.3519 207.746 72.8826 206.923 71.8426 205.668C70.8027 204.414 70.2665 202.817 70.3383 201.189L74.5255 100.94L72.0399 86.6494C71.8392 85.4843 71.9768 84.286 72.4364 83.1968C72.8961 82.1075 73.6585 81.1729 74.6332 80.5039L94.0946 67.1884C95.6278 66.1406 97.473 65.6484 99.3244 65.7934L100.036 65.8496C102.028 66.0056 103.922 66.7843 105.448 68.0756C106.974 69.3669 108.055 71.1053 108.538 73.0449L109.284 76.0298L122.232 99.0478C126.058 105.85 128.935 113.145 130.78 120.729L143.054 171.168C144.121 175.557 144.859 180.018 145.264 184.516L149.329 229.875C149.421 230.856 149.192 231.841 148.677 232.682C148.161 233.522 147.387 234.172 146.47 234.534C143.748 235.626 140.842 236.189 137.91 236.191V236.191Z" fill="#2447F9"/>
<path d="M97.1771 199.863C96.9098 198.519 96.9406 197.132 97.2672 195.801C97.5938 194.469 98.2085 193.226 99.0677 192.158C99.9269 191.089 101.01 190.223 102.24 189.618C103.471 189.014 104.819 188.687 106.189 188.66L114.009 168.709L127.292 170.504L115.853 198.523C115.746 200.828 114.797 203.015 113.185 204.667C111.574 206.319 109.413 207.323 107.111 207.488C104.808 207.654 102.526 206.969 100.695 205.563C98.8642 204.158 97.6125 202.13 97.1771 199.863V199.863Z" fill="#FFB8B8"/>
<path d="M125.574 185.784C123.908 186.53 122.021 186.613 120.296 186.016L108.12 181.799C107.005 181.415 106.003 180.76 105.202 179.894C104.402 179.028 103.827 177.978 103.531 176.836L92.5387 134.696L77.9103 106.717C76.4342 103.885 76.0921 100.596 76.9537 97.5197C77.8153 94.4437 79.8158 91.8111 82.5487 90.1571L82.549 90.157C83.9736 89.2976 85.5548 88.73 87.2008 88.4873C88.8467 88.2446 90.5245 88.3316 92.1366 88.7432C93.7486 89.1548 95.2627 89.8829 96.5908 90.885C97.9189 91.8871 99.0345 93.1433 99.8727 94.5805L119.522 128.273L129.278 150.471C132.355 157.517 133.109 165.36 131.431 172.864L129.632 180.824C129.41 181.807 128.982 182.732 128.378 183.539C127.774 184.346 127.006 185.017 126.125 185.507C125.945 185.608 125.761 185.7 125.574 185.784Z" fill="#2447F9"/>
</svg>
